<?xml version="1.0" standalone="no"?><!DOCTYPE svg PUBLIC "-//W3C//DTD SVG 1.1//EN" "http://www.w3.org/Graphics/SVG/1.1/DTD/svg11.dtd"><svg t="1552465263925" class="icon" style="" viewBox="0 0 1024 1024" version="1.1" xmlns="http://www.w3.org/2000/svg" p-id="2255" xmlns:xlink="http://www.w3.org/1999/xlink" width="200" height="200"><defs><style type="text/css"></style></defs><path d="M964.030088 1011.155478 62.011615 1011.155478c-11.298924 0-20.457946-9.159023-20.457946-20.457946s9.159023-20.457946 20.457946-20.457946l902.018472 0c11.298924 0 20.457946 9.159023 20.457946 20.457946S975.329011 1011.155478 964.030088 1011.155478L964.030088 1011.155478z" p-id="2256"></path><path d="M620.516619 1011.155478c-0.030687 0-0.062397 0-0.093084 0l-492.025884-2.229916c-11.262099-0.051145-20.364863-9.194824-20.364863-20.457946L108.032789 206.136313c0-8.84397 5.683217-16.686524 14.086319-19.440164L614.144992 25.4548c6.23149-2.044772 13.064445-0.973798 18.375327 2.874341s8.454246 10.008027 8.454246 16.565822l0 945.802569c0 5.441814-2.168542 10.659613-6.024865 14.498547C631.114858 1009.014554 625.924677 1011.155478 620.516619 1011.155478L620.516619 1011.155478zM148.948681 968.10173l451.109991 2.044772L600.058673 73.127952 148.948681 220.960141 148.948681 968.10173 148.948681 968.10173z" p-id="2257"></path><path d="M243.29357 318.379859l52.618861 0 0 52.634204-52.618861 0 0-52.634204Z" p-id="2258"></path><path d="M343.245981 318.379859l52.633181 0 0 52.634204-52.633181 0 0-52.634204Z" p-id="2259"></path><path d="M443.224987 318.379859l52.633181 0 0 52.634204-52.633181 0 0-52.634204Z" p-id="2260"></path><path d="M243.29357 418.924527l52.618861 0 0 52.631136-52.618861 0 0-52.631136Z" p-id="2261"></path><path d="M343.245981 418.924527l52.633181 0 0 52.631136-52.633181 0 0-52.631136Z" p-id="2262"></path><path d="M443.224987 418.924527l52.633181 0 0 52.631136-52.633181 0 0-52.631136Z" p-id="2263"></path><path d="M243.29357 517.816194l52.618861 0 0 52.618861-52.618861 0 0-52.618861Z" p-id="2264"></path><path d="M343.245981 517.816194l52.633181 0 0 52.618861-52.633181 0 0-52.618861Z" p-id="2265"></path><path d="M443.224987 517.816194l52.633181 0 0 52.618861-52.633181 0 0-52.618861Z" p-id="2266"></path><path d="M243.29357 618.35984l52.618861 0 0 52.634204-52.618861 0 0-52.634204Z" p-id="2267"></path><path d="M343.245981 618.35984l52.633181 0 0 52.634204-52.633181 0 0-52.634204Z" p-id="2268"></path><path d="M443.224987 618.35984l52.633181 0 0 52.634204-52.633181 0 0-52.634204Z" p-id="2269"></path><path d="M243.29357 718.093351l52.618861 0 0 52.631136-52.618861 0 0-52.631136Z" p-id="2270"></path><path d="M343.245981 718.093351l52.633181 0 0 52.631136-52.633181 0 0-52.631136Z" p-id="2271"></path><path d="M443.224987 718.093351l52.633181 0 0 52.631136-52.633181 0 0-52.631136Z" p-id="2272"></path><path d="M243.29357 817.82584l52.618861 0 0 52.631136-52.618861 0 0-52.631136Z" p-id="2273"></path><path d="M343.245981 817.82584l52.633181 0 0 52.631136-52.633181 0 0-52.631136Z" p-id="2274"></path><path d="M443.224987 817.82584l52.633181 0 0 52.631136-52.633181 0 0-52.631136Z" p-id="2275"></path><path d="M741.582654 318.379859l52.605563 0 0 52.634204-52.605563 0 0-52.634204Z" p-id="2276"></path><path d="M741.582654 418.924527l52.605563 0 0 52.631136-52.605563 0 0-52.631136Z" p-id="2277"></path><path d="M741.582654 517.816194l52.605563 0 0 52.618861-52.605563 0 0-52.618861Z" p-id="2278"></path><path d="M741.582654 618.35984l52.605563 0 0 52.634204-52.605563 0 0-52.634204Z" p-id="2279"></path><path d="M741.582654 718.093351l52.605563 0 0 52.631136-52.605563 0 0-52.631136Z" p-id="2280"></path><path d="M741.582654 817.82584l52.605563 0 0 52.631136-52.605563 0 0-52.631136Z" p-id="2281"></path><path d="M905.839505 1011.155478c-11.298924 0-20.457946-9.159023-20.457946-20.457946L885.381559 273.146316 619.248226 166.169669c-10.483675-4.214337-15.566451-16.129045-11.352114-26.612719 4.213314-10.482652 16.12393-15.567474 26.611697-11.352114l278.96251 112.134095c7.750493 3.115745 12.828155 10.629949 12.828155 18.981906l0 731.376696C926.297451 1001.996456 917.138429 1011.155478 905.839505 1011.155478L905.839505 1011.155478z" p-id="2282"></path></svg>