<?xml version="1.0" standalone="no"?><!DOCTYPE svg PUBLIC "-//W3C//DTD SVG 1.1//EN" "http://www.w3.org/Graphics/SVG/1.1/DTD/svg11.dtd"><svg t="1552894615513" class="icon" style="" viewBox="0 0 1024 1024" version="1.1" xmlns="http://www.w3.org/2000/svg" p-id="1147" xmlns:xlink="http://www.w3.org/1999/xlink" width="200" height="200"><defs><style type="text/css"></style></defs><path d="M563.2 179.2h-25.6v-25.6c0-12.8-12.8-25.6-25.6-25.6s-25.6 12.8-25.6 25.6v25.6h-25.6c-12.8 0-25.6 12.8-25.6 25.6s12.8 25.6 25.6 25.6h25.6V256c0 12.8 12.8 25.6 25.6 25.6s25.6-12.8 25.6-25.6v-25.6h25.6c12.8 0 25.6-12.8 25.6-25.6s-12.8-25.6-25.6-25.6z" fill="" p-id="1148"></path><path d="M686.08 596.48C737.28 550.4 768 483.84 768 409.6V117.76c0-10.24-5.12-20.48-15.36-23.04C719.36 81.92 629.76 51.2 512 51.2S307.2 81.92 271.36 94.72c-10.24 5.12-15.36 12.8-15.36 23.04v281.6c0 76.8 33.28 145.92 84.48 197.12C204.8 627.2 102.4 750.08 102.4 896c0 43.52 33.28 76.8 76.8 76.8h665.6c43.52 0 76.8-33.28 76.8-76.8 0-145.92-99.84-266.24-235.52-299.52zM307.2 135.68c38.4-12.8 110.08-33.28 204.8-33.28s166.4 20.48 204.8 33.28v207.36c-6.144-2.048-65.024-20.48-103.936-27.136-7.168-1.536-24.064-3.072-33.792-4.608-22.016-2.048-45.568-4.096-67.072-4.096-87.04 0-161.28 20.48-204.8 35.84V135.68z m2.56 266.24v-5.12h-2.56c48.64-17.92 117.76-38.4 204.8-38.4 25.6 0 57.344 4.096 79.36 6.656 24.576 3.072 117.248 27.136 128 31.744v12.8c0 112.64-92.16 204.8-204.8 204.8h-12.8c-107.52-7.68-192-99.84-192-212.48zM614.4 640l-99.84 151.04L409.6 642.56c25.6 12.8 53.76 20.48 84.48 20.48H512c35.84 0 71.68-7.68 102.4-23.04zM179.2 919.04c-15.36 2.56-25.6-7.68-25.6-23.04 0-112.64 71.68-207.36 171.52-240.64l-33.28 84.48c-7.68 20.48-2.56 46.08 17.92 58.88l87.04 64 71.68 56.32H179.2z m332.8-25.6l-87.04-69.12-87.04-64 33.28-81.92 145.92 212.48-5.12 2.56z m33.28-53.76L652.8 678.4l33.28 79.36-87.04 66.56-40.96 33.28-12.8-17.92zM844.8 921.6H601.6l-15.36-23.04 43.52-33.28 87.04-64c17.92-12.8 25.6-38.4 17.92-58.88l-33.28-84.48c99.84 35.84 171.52 130.56 171.52 240.64-2.56 12.8-12.8 23.04-28.16 23.04z" fill="" p-id="1149"></path></svg>