<?xml version="1.0" standalone="no"?><!DOCTYPE svg PUBLIC "-//W3C//DTD SVG 1.1//EN" "http://www.w3.org/Graphics/SVG/1.1/DTD/svg11.dtd"><svg t="1557295072597" class="icon" style="" viewBox="0 0 1024 1024" version="1.1" xmlns="http://www.w3.org/2000/svg" p-id="1168" xmlns:xlink="http://www.w3.org/1999/xlink" width="200" height="200"><defs><style type="text/css"></style></defs><path d="M586.501296 515.924379a118.776 46.561 0 1 0 243.088434 0 118.776 46.561 0 1 0-243.088434 0Z" p-id="1169"></path><path d="M802.689057 646.378523 613.404016 646.378523 677.750533 515.924379 738.036571 515.924379Z" p-id="1170"></path><path d="M882.331955 737.723951c0 15.954367-13.053294 29.007661-29.007661 29.007661l-290.556539 0c-15.953344 0-29.007661-13.053294-29.007661-29.007661l0-68.207451c0-15.954367 13.053294-29.007661 29.007661-29.007661l290.556539 0c15.953344 0 29.007661 13.053294 29.007661 29.007661L882.331955 737.723951z" p-id="1171"></path><path d="M493.657748 763.316839l-253.541507 0 0-508.541225 508.540202 0 0 151.267169 97.235578 0 0-172.321694c0-42.005696-34.174334-76.18003-76.181053-76.18003l-550.650275 0c-42.006719 0-76.18003 34.174334-76.18003 76.18003l0 550.650275c0 42.005696 34.174334 76.18003 76.18003 76.18003l274.596032 0L493.656725 763.316839z" p-id="1172"></path><path d="M673.531442 380.294352c0 15.954367-13.053294 29.007661-29.007661 29.007661l-306.663378 0c-15.953344 0-29.007661-13.053294-29.007661-29.007661l0-7.956206c0-15.954367 13.053294-29.007661 29.007661-29.007661l306.663378 0c15.953344 0 29.007661 13.053294 29.007661 29.007661L673.531442 380.294352z" p-id="1173"></path><path d="M499.744373 567.520501c0 15.954367-13.053294 29.007661-29.007661 29.007661l-132.87631 0c-15.953344 0-29.007661-13.053294-29.007661-29.007661l0-7.957229c0-15.954367 13.053294-29.007661 29.007661-29.007661l132.87631 0c15.953344 0 29.007661 13.053294 29.007661 29.007661L499.744373 567.520501z" p-id="1174"></path></svg>