<?xml version="1.0" standalone="no"?><!DOCTYPE svg PUBLIC "-//W3C//DTD SVG 1.1//EN" "http://www.w3.org/Graphics/SVG/1.1/DTD/svg11.dtd"><svg t="1553495925493" class="icon" style="" viewBox="0 0 1024 1024" version="1.1" xmlns="http://www.w3.org/2000/svg" p-id="2970" xmlns:xlink="http://www.w3.org/1999/xlink" width="200" height="200"><defs><style type="text/css"></style></defs><path d="M438.857143 987.428571a36.571429 36.571429 0 0 1-36.571429 36.571429H146.285714a73.142857 73.142857 0 0 1-73.142857-73.142857V73.142857a73.142857 73.142857 0 0 1 73.142857-73.142857h731.428572a73.142857 73.142857 0 0 1 73.142857 73.142857v402.285714a36.571429 36.571429 0 0 1-73.142857 0V73.142857H146.285714v877.714286h256a36.571429 36.571429 0 0 1 36.571429 36.571428zM731.428571 804.571429V694.857143a36.571429 36.571429 0 0 1 73.142858 0V804.571429h109.714285a36.571429 36.571429 0 0 1 0 73.142857H804.571429v109.714285a36.571429 36.571429 0 0 1-73.142858 0V877.714286H621.714286a36.571429 36.571429 0 0 1 0-73.142857H731.428571zM329.142857 219.428571h146.285714a36.571429 36.571429 0 0 1 0 73.142858h-146.285714a36.571429 36.571429 0 0 1 0-73.142858z m0 146.285715h292.571429a36.571429 36.571429 0 0 1 0 73.142857h-292.571429a36.571429 36.571429 0 0 1 0-73.142857z" p-id="2971"></path></svg>