<?xml version="1.0" standalone="no"?><!DOCTYPE svg PUBLIC "-//W3C//DTD SVG 1.1//EN" "http://www.w3.org/Graphics/SVG/1.1/DTD/svg11.dtd"><svg t="1555225240682" class="icon" style="" viewBox="0 0 1024 1024" version="1.1" xmlns="http://www.w3.org/2000/svg" p-id="1909" xmlns:xlink="http://www.w3.org/1999/xlink" width="200" height="200"><defs><style type="text/css"></style></defs><path d="M256 228.693333l546.133333 0c40.96 0 78.506667-34.133333 78.506667-75.093333L880.64 119.466667c0-40.96-34.133333-75.093333-78.506667-75.093333l-546.133333 0c-40.96 0-78.506667 34.133333-78.506667 75.093333l0 37.546667C177.493333 197.973333 215.04 228.693333 256 228.693333zM232.106667 119.466667c0-13.653333 10.24-23.893333 27.306667-23.893333l546.133333 0c13.653333 0 27.306667 10.24 27.306667 23.893333l0 37.546667c0 13.653333-10.24 23.893333-27.306667 23.893333l-546.133333 0c-13.653333 0-27.306667-10.24-27.306667-23.893333L232.106667 119.466667z" p-id="1910"></path><path d="M853.333333 245.76 197.973333 245.76c-47.786667 0-88.746667 44.373333-88.746667 98.986667l0 559.786667c0 54.613333 37.546667 98.986667 88.746667 98.986667L853.333333 1003.52c47.786667 0 88.746667-44.373333 88.746667-98.986667L942.08 344.746667C942.08 290.133333 901.12 245.76 853.333333 245.76zM890.88 904.533333c0 27.306667-17.066667 47.786667-37.546667 47.786667L197.973333 952.32c-20.48 0-37.546667-20.48-37.546667-47.786667L160.426667 344.746667c0-27.306667 17.066667-47.786667 37.546667-47.786667L853.333333 296.96c20.48 0 37.546667 20.48 37.546667 47.786667L890.88 904.533333z" p-id="1911"></path><path d="M638.293333 341.333333c-34.133333 0-68.266667 13.653333-95.573333 40.96l-102.4 105.813333 191.146667 191.146667 98.986667-102.4c23.893333-27.306667 37.546667-61.44 37.546667-95.573333 0-37.546667-13.653333-71.68-37.546667-95.573333C709.973333 354.986667 675.84 341.333333 638.293333 341.333333zM607.573333 512 580.266667 539.306667C576.853333 546.133333 570.026667 546.133333 566.613333 546.133333c-3.413333 0-10.24-3.413333-13.653333-6.826667-6.826667-6.826667-6.826667-20.48 0-27.306667l27.306667-27.306667c6.826667-6.826667 20.48-6.826667 27.306667 0C614.4 491.52 614.4 505.173333 607.573333 512zM651.946667 484.693333c-3.413333 3.413333-10.24 6.826667-17.066667 6.826667s-10.24-3.413333-17.066667-6.826667C617.813333 477.866667 614.4 474.453333 614.4 467.626667c0-6.826667 3.413333-13.653333 6.826667-17.066667 3.413333-3.413333 10.24-6.826667 17.066667-6.826667 6.826667 0 10.24 3.413333 17.066667 6.826667 3.413333 3.413333 6.826667 10.24 6.826667 17.066667C658.773333 474.453333 658.773333 477.866667 651.946667 484.693333z" p-id="1912"></path><path d="M310.613333 621.226667C286.72 648.533333 273.066667 682.666667 273.066667 716.8c0 37.546667 13.653333 71.68 37.546667 95.573333 23.893333 27.306667 58.026667 40.96 95.573333 40.96 34.133333 0 68.266667-13.653333 95.573333-40.96l109.226667-112.64L419.84 512 310.613333 621.226667z" p-id="1913"></path></svg>